<svg id="Capa_1" enable-background="new 0 0 512 512" height="512" viewBox="0 0 512 512" width="512" xmlns="http://www.w3.org/2000/svg"><g><path d="m420.016 256c6.882-7.196 13.223-14.425 18.961-21.638 31.86-40.051 41.652-75.538 27.573-99.923-14.079-24.386-49.708-33.647-100.322-26.082-9.116 1.363-18.547 3.24-28.22 5.602-2.791-9.558-5.881-18.664-9.259-27.24-18.755-47.618-44.591-73.842-72.749-73.842s-53.994 26.224-72.749 73.841c-3.378 8.576-6.467 17.682-9.259 27.24-9.673-2.362-19.104-4.239-28.22-5.602-50.616-7.565-86.243 1.697-100.322 26.082s-4.287 59.872 27.573 99.923c5.738 7.213 12.079 14.442 18.961 21.638-6.882 7.197-13.223 14.425-18.961 21.638-31.86 40.051-41.652 75.538-27.573 99.923 10.878 18.842 34.613 28.653 68.193 28.653 9.881 0 20.622-.851 32.13-2.571 9.116-1.363 18.547-3.24 28.22-5.602 2.791 9.558 5.881 18.664 9.259 27.24 18.755 47.617 44.591 73.841 72.749 73.841s53.994-26.224 72.749-73.841c3.378-8.576 6.467-17.682 9.259-27.24 9.673 2.362 19.104 4.239 28.22 5.602 11.511 1.72 22.246 2.571 32.13 2.571 33.576 0 57.316-9.813 68.193-28.653 14.079-24.385 4.287-59.872-27.573-99.923-5.74-7.212-12.081-14.44-18.963-21.637zm-51.503-132.361c10.762-1.609 20.75-2.399 29.854-2.399 27.5 0 46.889 7.221 54.801 20.925 10.532 18.241.951 48.34-26.284 82.577-5.382 6.766-11.329 13.552-17.778 20.315-16.195-15.612-34.836-30.951-55.307-45.521-2.383-25.013-6.347-48.826-11.769-70.657 9.081-2.205 17.932-3.961 26.483-5.24zm-70.018 205.965c-14.129 8.157-28.355 15.606-42.495 22.291-14.14-6.685-28.366-14.134-42.495-22.291s-27.693-16.753-40.552-25.656c-1.28-15.588-1.943-31.633-1.943-47.948s.663-32.359 1.943-47.948c12.86-8.903 26.423-17.499 40.552-25.656s28.355-15.606 42.495-22.291c14.14 6.685 28.366 14.134 42.495 22.291s27.693 16.753 40.552 25.656c1.28 15.588 1.943 31.633 1.943 47.948s-.663 32.359-1.943 47.948c-12.859 8.902-26.423 17.498-40.552 25.656zm38.542-5.649c-2.329 19.436-5.663 37.973-9.933 55.2-17.054-4.915-34.774-11.296-52.771-18.997 10.643-5.326 21.298-11.056 31.889-17.171 10.591-6.116 20.881-12.478 30.815-19.032zm-99.369 36.202c-17.997 7.701-35.717 14.083-52.771 18.997-4.271-17.227-7.604-35.764-9.933-55.2 9.934 6.555 20.224 12.916 30.815 19.031 10.591 6.116 21.245 11.847 31.889 17.172zm-81.037-67.954c-15.668-11.735-30.055-23.891-42.838-36.203 12.783-12.312 27.17-24.467 42.838-36.203-.71 11.88-1.074 23.972-1.074 36.203s.365 24.322 1.074 36.203zm18.332-104.158c2.329-19.436 5.663-37.973 9.933-55.2 17.054 4.915 34.774 11.296 52.771 18.997-10.643 5.326-21.298 11.056-31.889 17.171-10.591 6.116-20.881 12.478-30.815 19.032zm99.369-36.202c17.997-7.701 35.717-14.083 52.771-18.997 4.271 17.227 7.604 35.764 9.933 55.2-9.934-6.555-20.224-12.916-30.815-19.031-10.591-6.116-21.245-11.847-31.889-17.172zm81.037 67.954c15.668 11.735 30.055 23.891 42.838 36.203-12.783 12.312-27.17 24.467-42.838 36.203.71-11.88 1.074-23.972 1.074-36.203s-.365-24.322-1.074-36.203zm-157.741-127.416c16.033-40.705 37.309-64.051 58.372-64.051s42.339 23.346 58.372 64.051c3.169 8.045 6.072 16.587 8.704 25.554-21.618 6.219-44.222 14.693-67.076 25.136-22.854-10.443-45.458-18.917-67.076-25.136 2.632-8.967 5.536-17.51 8.704-25.554zm-138.796 49.784c7.913-13.705 27.298-20.925 54.801-20.925 9.103 0 19.095.791 29.854 2.399 8.551 1.278 17.401 3.035 26.483 5.239-5.423 21.831-9.386 45.644-11.769 70.657-20.471 14.57-39.112 29.909-55.307 45.521-6.45-6.763-12.396-13.549-17.778-20.315-27.235-34.236-36.816-64.335-26.284-82.576zm84.655 246.196c-43.269 6.467-74.124-.285-84.655-18.526-10.532-18.241-.951-48.34 26.284-82.577 5.382-6.766 11.329-13.552 17.778-20.315 16.195 15.612 34.836 30.951 55.307 45.521 2.383 25.013 6.347 48.826 11.769 70.657-9.081 2.205-17.932 3.961-26.483 5.24zm170.885 31.258c-16.033 40.705-37.309 64.051-58.372 64.051s-42.339-23.346-58.372-64.051c-3.169-8.045-6.072-16.587-8.704-25.554 21.618-6.219 44.222-14.693 67.076-25.136 22.854 10.443 45.458 18.917 67.076 25.136-2.632 8.967-5.536 17.51-8.704 25.554zm138.796-49.784c-10.532 18.241-41.387 24.992-84.655 18.526-8.551-1.278-17.401-3.035-26.483-5.239 5.423-21.831 9.386-45.644 11.769-70.657 20.471-14.57 39.112-29.909 55.307-45.521 6.45 6.763 12.396 13.549 17.778 20.315 27.235 34.236 36.816 64.335 26.284 82.576z" fill="#d4f4fc"/><circle cx="52.141" cy="373.698" fill="#FBCA03" r="20.604"/><circle cx="459.859" cy="138.302" fill="#FBCA03" r="20.604"/><g><g fill="#FBCA03"><circle cx="459.859" cy="373.698" r="20.604"/><circle cx="52.141" cy="138.302" r="20.604"/></g></g><g><g><g><circle cx="256" cy="20.604" fill="#FBCA03" r="20.604"/></g><g><circle cx="256" cy="491.396" fill="#FBCA03" r="20.604"/></g></g></g><circle cx="256" cy="256" fill="#c7f2fc" r="46.358"/><path d="m271.453 299.711c-4.832 1.72-10.034 2.648-15.453 2.648-25.6 0-46.358-20.758-46.358-46.358s20.758-46.359 46.358-46.359c5.419 0 10.621.927 15.453 2.648-18.008 6.356-30.905 23.529-30.905 43.711s12.897 37.353 30.905 43.71z" fill="black"/></g></svg>